<?xml version="1.0" encoding="utf-8"?>
<!-- Generator: Adobe Illustrator 17.0.2, SVG Export Plug-In . SVG Version: 6.00 Build 0)  -->
<!DOCTYPE svg PUBLIC "-//W3C//DTD SVG 1.1//EN" "http://www.w3.org/Graphics/SVG/1.1/DTD/svg11.dtd">
<svg version="1.1" id="Layer_1" xmlns="http://www.w3.org/2000/svg" xmlns:xlink="http://www.w3.org/1999/xlink" x="0px" y="0px"
	 width="358.314px" height="78.878px" viewBox="0 0 358.314 78.878" enable-background="new 0 0 358.314 78.878"
	 xml:space="preserve">
<g>
	<polygon fill="#74ACDD" points="78.876,0 31.162,48.56 0,28.843 31.162,78.878 63.802,24.924 78.876,0 65.369,30.633 
		78.876,78.878 	"/>
	<polygon fill="#74ACDD" points="12.75,58.382 0,28.843 0,78.878 	"/>
</g>
<g>
	<path fill="#FFFFFF" d="M155.914,69.459V31.457c0-0.919,0.135-3.546,0.411-7.876h-0.15c-0.77,2.015-1.418,3.571-1.939,4.665
		l-19.039,41.212h-1.194l-19.113-40.988c-0.621-1.319-1.208-2.998-1.755-5.04h-0.187c0.173,2.39,0.261,4.767,0.261,7.13v38.898
		h-3.695V15.928h3.434l19.971,43.116c0.127,0.25,0.262,0.585,0.412,1.008c0.15,0.424,0.313,0.847,0.485,1.269
		c0.248,0.648,0.508,1.369,0.784,2.166h0.224l0.411-1.195c0.022-0.098,0.447-1.281,1.269-3.547l19.672-42.816h3.286v53.531H155.914z
		"/>
	<path fill="#FFFFFF" d="M195.297,69.459v-7.653h-0.149c-1.218,2.614-2.992,4.699-5.319,6.253c-2.328,1.553-4.909,2.332-7.747,2.332
		c-3.634,0-6.509-1.02-8.623-3.061c-2.113-2.04-3.173-4.614-3.173-7.727c0-6.669,4.419-10.699,13.253-12.095l11.759-1.754
		c0-8.213-3.084-12.319-9.258-12.319c-4.204,0-8.302,1.693-12.282,5.078v-4.145c1.419-1.119,3.342-2.076,5.768-2.874
		c2.427-0.796,4.709-1.194,6.851-1.194c3.934,0,6.977,1.22,9.126,3.659c2.152,2.44,3.229,5.986,3.229,10.638v24.862H195.297z
		 M184.77,50.42c-4.008,0.575-6.817,1.5-8.437,2.782c-1.619,1.283-2.427,3.367-2.427,6.252c0,2.266,0.752,4.132,2.259,5.6
		c1.508,1.47,3.603,2.203,6.291,2.203c3.682,0,6.741-1.363,9.182-4.087c2.44-2.726,3.659-6.239,3.659-10.546V48.89L184.77,50.42z"/>
	<path fill="#FFFFFF" d="M211.05,50.496c0,5.252,1.212,9.358,3.639,12.318c2.426,2.962,5.752,4.442,9.985,4.442
		c4.28,0,8.459-1.579,12.544-4.741v3.658c-3.959,2.814-8.376,4.218-13.254,4.218c-4.927,0-8.905-1.766-11.943-5.301
		c-3.038-3.532-4.555-8.522-4.555-14.97c0-5.573,1.585-10.27,4.76-14.091c3.173-3.82,7.297-5.73,12.374-5.73
		c4.755,0,8.398,1.668,10.938,5.002c2.539,3.336,3.809,7.891,3.809,13.663v1.531H211.05z M235.762,47.36
		c-0.15-4.405-1.209-7.825-3.175-10.265c-1.963-2.438-4.678-3.659-8.138-3.659c-3.584,0-6.551,1.201-8.903,3.603
		c-2.35,2.403-3.803,5.842-4.348,10.321H235.762z"/>
	<path fill="#FFFFFF" d="M246.848,67.78v-4.144c1.294,1.12,2.859,2.004,4.704,2.65c1.843,0.649,3.434,0.971,4.779,0.971
		c5.994,0,8.993-2.45,8.993-7.354c0-1.691-0.655-3.135-1.977-4.33c-1.321-1.194-3.457-2.426-6.422-3.696
		c-3.657-1.591-6.229-3.24-7.707-4.946c-1.48-1.703-2.221-3.775-2.221-6.215c0-3.11,1.19-5.622,3.564-7.541
		c2.374-1.915,5.306-2.873,8.79-2.873c3.288,0,6.101,0.671,8.436,2.016v3.881c-2.838-1.84-5.772-2.762-8.81-2.762
		c-2.514,0-4.54,0.653-6.084,1.959c-1.546,1.307-2.313,3.005-2.313,5.096c0,1.818,0.482,3.292,1.455,4.424
		c0.971,1.134,3.112,2.433,6.419,3.901c3.982,1.792,6.721,3.453,8.215,4.983c1.491,1.531,2.237,3.565,2.237,6.103
		c0,3.038-1.138,5.543-3.414,7.522c-2.278,1.979-5.418,2.967-9.426,2.967C252.389,70.392,249.312,69.52,246.848,67.78z"/>
	<path fill="#FFFFFF" d="M293.623,68.936c-1.793,0.845-3.474,1.27-5.039,1.27c-5.651,0-8.475-3.383-8.475-10.153V34.369h-6.868
		v-3.136h6.868v-9.93c0.546-0.198,1.119-0.396,1.717-0.597c0.598-0.173,1.173-0.359,1.716-0.559v11.086h10.082v3.136h-10.082v25.235
		c0,2.639,0.417,4.549,1.253,5.73c0.837,1.182,2.243,1.772,4.236,1.772c1.421,0,2.947-0.46,4.593-1.381V68.936z"/>
	<path fill="#FFFFFF" d="M319.229,34.817c-1.143-0.822-2.487-1.232-4.031-1.232c-3.01,0-5.538,1.557-7.578,4.667
		c-2.04,3.113-3.06,7.529-3.06,13.252v17.956h-3.361V31.233h3.361v8.474h0.15c0.869-2.911,2.251-5.175,4.141-6.793
		c1.892-1.618,4.085-2.427,6.572-2.427c1.417,0,2.686,0.224,3.806,0.672V34.817z"/>
	<path fill="#FFFFFF" d="M340.245,70.392c-5.574,0-9.985-1.833-13.232-5.505c-3.25-3.67-4.873-8.441-4.873-14.317
		c0-6.346,1.697-11.31,5.098-14.893c3.397-3.584,7.869-5.376,13.421-5.376c5.448,0,9.756,1.78,12.914,5.338
		c3.159,3.56,4.741,8.488,4.741,14.782c0,5.95-1.609,10.766-4.834,14.447C350.256,68.552,345.847,70.392,340.245,70.392z
		 M340.509,33.436c-4.505,0-8.097,1.519-10.771,4.554c-2.673,3.038-4.014,7.256-4.014,12.654c0,5.003,1.308,9.023,3.918,12.058
		c2.615,3.038,6.186,4.555,10.715,4.555c4.606,0,8.154-1.494,10.642-4.479c2.486-2.986,3.731-7.13,3.731-12.432
		c0-5.449-1.236-9.63-3.715-12.542C348.537,34.892,345.041,33.436,340.509,33.436z"/>
</g>
</svg>
